<?xml version="1.0" encoding="UTF-8"?>
<svg id="Layer_2" xmlns="http://www.w3.org/2000/svg" xmlns:xlink="http://www.w3.org/1999/xlink" viewBox="0 0 365.74 359.61">
  <defs>
    <style>
      .cls-1 {
        fill: #606060;
      }

      .cls-2 {
        fill: #2b63bc;
      }

      .cls-3 {
        fill: url(#linear-gradient);
      }
    </style>
    <linearGradient id="linear-gradient" x1="0" y1="100.14" x2="208.92" y2="100.14" gradientUnits="userSpaceOnUse">
      <stop offset="0" stop-color="#ff5003"/>
      <stop offset="1" stop-color="#ff8e00"/>
    </linearGradient>
  </defs>
  <g id="Layer_1-2" data-name="Layer_1">
    <g>
      <path class="cls-2" d="M49.19,82.32h-.41l.21-.37s.06.12.19.37Z"/>
      <path class="cls-2" d="M365.74,220.96c0,76.57-62.07,138.64-138.64,138.64H79.29v-141.48c8.12,1.73,16.53,2.63,25.17,2.63,19.75,0,38.4-4.74,54.85-13.16v85.32h54.46c19.87,0,37.86-8.06,50.88-21.08,13.03-13.02,21.08-31.01,21.08-50.88,0-39.4-31.68-71.42-70.95-71.95,6.63-14.93,10.31-31.48,10.31-48.87,0-6.06-.44-12.01-1.31-17.82h3.32c38.28,0,72.95,15.52,98.03,40.61,25.09,25.09,40.61,59.75,40.61,98.03Z"/>
      <path class="cls-1" d="M49.19,82.32h-.41l.21-.37s.06.12.19.37Z"/>
      <path class="cls-3" d="M197.97,78.93c-.35-1.63-.74-3.24-1.17-4.84,9.79-11.5,14.15-20.32,11.22-24.54-2.54-3.65-10.2-3.38-21.41.11-.58.18-1.18.38-1.77.58-.03,0-.05.01-.08.02-.13.04-.27.09-.4.14-.29.1-.59.2-.89.3-.53.18-1.06.37-1.61.56-.32.11-.64.23-.96.35-.55.2-1.11.41-1.68.63-.31.12-.63.24-.94.36-.65.25-1.3.51-1.97.78-.24.1-.48.19-.73.29-.91.37-1.83.75-2.77,1.15-.21.09-.43.19-.64.28-.73.31-1.48.63-2.23.97-.34.15-.69.31-1.04.46-.64.28-1.28.57-1.93.87-.38.17-.76.35-1.14.52-.29.14-.58.26-.87.4-.02.01-.04.02-.06.03-.57.27-1.13.53-1.71.8.23.65.4,1.34.52,2.04,1.03,6.51-3.42,12.62-9.92,13.65-4.6.73-9.01-1.29-11.55-4.83-1.05-1.46-1.79-3.19-2.09-5.09-.08-.49-.13-.99-.14-1.48h0c-.21-5.93,4.03-11.21,10.05-12.16,2.53-.4,4.99.03,7.13,1.08.69.34,1.49.32,2.17-.05,6.57-3.62,12.95-6.95,19.07-9.97,1.35-.66,1.74-2.39.81-3.58C156.36,9.33,117.77-6.35,78.23,2.43,32.67,12.55-2.87,59.92.18,106.49c.54,8.26,2.06,16.18,4.4,23.67.46,1.48,2.21,2.13,3.52,1.3,0,0,.02-.01.03-.02,24.42-15.41,47.88-27.94,67.23-36.32,1.3-.56,1.82-2.13,1.1-3.36l-7.6-12.94c-1.47-2.51.41-5.63,3.3-5.52l44.91,1.7c1.05.04,1.95.51,2.57,1.2.97,1.07,1.29,2.68.55,4.14l-1.7,3.34-.34.65-18.37,36.05c-1.31,2.58-4.96,2.69-6.43.19l-8.17-13.92-1.11-1.88c-.72-1.23-2.37-1.54-3.49-.66-10.97,8.65-20.28,16.84-27.44,24.13-.11.09-.23.21-.36.36-.02.02-.04.04-.06.06-1.95,1.99-3.72,3.91-5.33,5.76-6.89,7.33-17.02,17.91-17.02,17.91h0c-.17.17-.34.34-.51.52-.47.47-.93.94-1.39,1.41-.34.35-.68.7-1.01,1.05-.44.45-.87.91-1.3,1.35-.33.34-.65.69-.97,1.03-.42.45-.82.89-1.23,1.33-.31.33-.61.67-.91,1-.14.16-.29.32-.43.47-.02.02-.03.04-.05.06-.43.48-.86.95-1.27,1.42-9.35,10.65-14.32,19.18-13.53,24.16.13.8.39,1.49.82,2.1,3.47,4.99,16.57,2.65,35.2-5.26,20.32,13.83,45.76,20.25,71.95,16.11,54.62-8.64,91.9-59.92,83.26-114.54-.3-1.88-.65-3.74-1.05-5.58Z"/>
    </g>
  </g>
</svg>